<?xml version="1.0" encoding="UTF-8" standalone="no"?>
<!-- Created with Inkscape (http://www.inkscape.org/) -->

<svg
   xmlns:dc="http://purl.org/dc/elements/1.1/"
   xmlns:cc="http://creativecommons.org/ns#"
   xmlns:rdf="http://www.w3.org/1999/02/22-rdf-syntax-ns#"
   xmlns:svg="http://www.w3.org/2000/svg"
   xmlns="http://www.w3.org/2000/svg"
   xmlns:sodipodi="http://sodipodi.sourceforge.net/DTD/sodipodi-0.dtd"
   xmlns:inkscape="http://www.inkscape.org/namespaces/inkscape"
   width="114.3mm"
   height="96.974007mm"
   viewBox="0 0 114.3 96.974007"
   version="1.1"
   id="svg3824"
   inkscape:version="0.92.3 (2405546, 2018-03-11)"
   sodipodi:docname="icon-map.svg">
  <defs
     id="defs3818" />
  <sodipodi:namedview
     id="base"
     pagecolor="#ffffff"
     bordercolor="#666666"
     borderopacity="1.0"
     inkscape:pageopacity="0.0"
     inkscape:pageshadow="2"
     inkscape:zoom="0.35"
     inkscape:cx="-222.57146"
     inkscape:cy="-56.742066"
     inkscape:document-units="mm"
     inkscape:current-layer="layer1"
     showgrid="false"
     inkscape:window-width="1920"
     inkscape:window-height="1026"
     inkscape:window-x="0"
     inkscape:window-y="25"
     inkscape:window-maximized="1" />
  <metadata
     id="metadata3821">
    <rdf:RDF>
      <cc:Work
         rdf:about="">
        <dc:format>image/svg+xml</dc:format>
        <dc:type
           rdf:resource="http://purl.org/dc/dcmitype/StillImage" />
        <dc:title></dc:title>
      </cc:Work>
    </rdf:RDF>
  </metadata>
  <g
     inkscape:label="Layer 1"
     inkscape:groupmode="layer"
     id="layer1"
     transform="translate(-47.927389,-36.846321)">
    <g
       transform="matrix(1.5875002,0,0,1.5233402,-136.22184,-351.86638)"
       id="Map">
      <path
         style="fill:#444444"
         inkscape:connector-curvature="0"
         d="m 186.8315,255.59081 c -0.72749,-0.4604 -1.6396,-0.51561 -2.41699,-0.1479 l -21.2529,10.05911 -21.25191,-10.05912 c -0.7061,-0.35651 -1.37109,-0.36771 -2.1485,0 l -22.3252,10.56781 c -0.8779,0.41458 -1.4365,1.29889 -1.4365,2.26959 v 48.03848 c 0,0.8609 0.44041,1.66171 1.167,2.12161 0.4082,0.2583 0.875,0.38971 1.3438,0.38971 0.3652,0 0.7324,-0.0801 1.0742,-0.2417 l 21.25189,-10.05911 21.252,10.05911 c 0.34081,0.16159 0.70801,0.2417 1.07321,0.2417 0.3662,0 0.7334,-0.0801 1.0752,-0.2417 l 22.3262,-10.5679 c 0.87689,-0.41452 1.43649,-1.2988 1.43649,-2.26849 V 257.7124 c 1e-5,-0.86081 -0.44138,-1.66159 -1.16799,-2.12159 z m -48.50679,48.57078 -17.3037,8.19092 v -42.4834 l 17.3037,-8.18991 z m 5.0215,-42.48239 17.30469,8.18991 v 42.4834 l -17.30469,-8.19092 z m 39.6308,42.48239 -17.30371,8.19092 v -42.4834 l 17.30371,-8.18991 z"
         id="path22" />
      <g
         id="g36">
        <g
           id="g26">
          <path
             style="fill:#444444"
             inkscape:connector-curvature="0"
             d="m 176.0679,277.5083 c -0.6631,0 -1.30569,-0.272 -1.7774,-0.74319 -0.4619,-0.4624 -0.7334,-1.1152 -0.7334,-1.76752 0,-0.66409 0.2715,-1.31638 0.7334,-1.7789 0.93361,-0.9335 2.62111,-0.9335 3.55571,0 0.4619,0.46252 0.73239,1.11481 0.73239,1.7789 0,0.65231 -0.27049,1.30511 -0.73239,1.76752 -0.47271,0.47119 -1.11521,0.74319 -1.77831,0.74319 z"
             id="path24" />
        </g>
        <g
           id="g30">
          <path
             style="fill:#444444"
             inkscape:connector-curvature="0"
             d="m 130.62061,295.51071 c -0.59181,-1.24512 -0.0498,-2.74213 1.2061,-3.33392 v 0 c 1.24509,-0.59329 2.7412,-0.0606 3.33389,1.19482 v 0 c 0.5918,1.25488 0.0596,2.75189 -1.1953,3.34518 v 0 c -0.3418,0.1597 -0.71291,0.23972 -1.0742,0.23972 v 0 c -0.9346,0 -1.83789,-0.53171 -2.27049,-1.4458 z m 15.41209,-6.0459 c -0.3808,-1.33591 0.4024,-2.72162 1.7373,-3.0932 v 0 c 1.336,-0.37161 2.72169,0.40228 3.0938,1.73828 v 0 c 0.37199,1.3349 -0.4014,2.72162 -1.74809,3.09271 v 0 c -0.2207,0.0699 -0.4512,0.1001 -0.67281,0.1001 v 0 c -1.09379,0 -2.1084,-0.73291 -2.4102,-1.83789 z m 7.5928,-1.94772 c -0.01,-1.3862 1.1055,-2.5108 2.4912,-2.52148 v 0 c 1.3857,-0.01 2.52051,1.1055 2.5303,2.49069 v 0 c 0,1.3858 -1.11531,2.521 -2.50101,2.53131 v 0 h -0.01 v 0 c -1.38569,0 -2.51069,-1.1153 -2.51069,-2.50052 z m 15.95411,-4.60599 c -0.94341,-1.0239 -0.86331,-2.62109 0.1611,-3.55511 v 0 c 1.0244,-0.93359 2.6113,-0.8638 3.5459,0.1611 v 0 c 0.93359,1.02341 0.8633,2.61081 -0.1611,3.5542 v 0 0 0 c -0.48241,0.43311 -1.0947,0.65381 -1.6973,0.65381 v 0 c -0.68361,0 -1.35642,-0.27201 -1.8486,-0.814 z"
             id="path28" />
        </g>
        <g
           id="g34">
          <path
             style="fill:#444444"
             inkscape:connector-curvature="0"
             d="m 125.9311,300.48239 c -0.663,0 -1.3164,-0.27148 -1.7783,-0.73389 -0.4717,-0.47119 -0.7334,-1.11371 -0.7334,-1.77679 0,-0.6626 0.2617,-1.30621 0.7334,-1.77792 0.9346,-0.93347 2.6114,-0.93347 3.545,0 0.4726,0.47171 0.74409,1.11533 0.74409,1.77792 0,0.66309 -0.2715,1.3056 -0.74409,1.77679 -0.462,0.46241 -1.1045,0.73389 -1.7667,0.73389 z"
             id="path32" />
        </g>
      </g>
    </g>
  </g>
</svg>
